<svg width="21" height="21" viewBox="0 0 21 21" fill="none" xmlns="http://www.w3.org/2000/svg">
<path d="M10.166 15.9203L7.16602 14.4203M7.16602 14.4203L1.16602 17.4203V4.4201L7.16602 1.42004M7.16602 14.4203V1.42004M7.16602 1.42004L13.166 4.4201M13.166 4.4201L19.166 1.42004V8.92018M13.166 4.4201V9.9202M17.166 15.4203V15.4303M19.287 17.541C19.7067 17.1215 19.9925 16.5869 20.1083 16.0049C20.2241 15.423 20.1648 14.8197 19.9377 14.2715C19.7107 13.7232 19.3262 13.2546 18.8328 12.9249C18.3395 12.5952 17.7594 12.4193 17.166 12.4193C16.5726 12.4193 15.9926 12.5952 15.4992 12.9249C15.0058 13.2546 14.6213 13.7232 14.3943 14.2715C14.1673 14.8197 14.1079 15.423 14.2237 16.0049C14.3396 16.5869 14.6254 17.1215 15.045 17.541C15.463 17.96 16.17 18.586 17.166 19.42C18.217 18.53 18.925 17.904 19.287 17.541Z" stroke="#3A3A3A" stroke-width="1.5" stroke-linecap="round" stroke-linejoin="round"/>
</svg>
