<svg width="40" height="40" viewBox="0 0 31 31" fill="none" xmlns="http://www.w3.org/2000/svg">
<path d="M19.3158 8.63158H19.3311M15.5 28.4737H5.57895C4.36454 28.4737 3.19986 27.9913 2.34114 27.1325C1.48242 26.2738 1 25.1091 1 23.8947V5.57895C1 4.36454 1.48242 3.19986 2.34114 2.34114C3.19986 1.48242 4.36454 1 5.57895 1H23.8947C25.1091 1 26.2738 1.48242 27.1325 2.34114C27.9913 3.19986 28.4737 4.36454 28.4737 5.57895V15.5M1 20.8421L8.63158 13.2105C10.048 11.8475 11.7941 11.8475 13.2105 13.2105L18.5526 18.5526M17.7895 17.7895L19.3158 16.2632C20.3522 15.2665 21.5641 14.9978 22.6951 15.4603M25.4211 30V20.8421M25.4211 20.8421L30 25.4211M25.4211 20.8421L20.8421 25.4211" stroke="#666666" stroke-width="1.5" stroke-linecap="round" stroke-linejoin="round"/>
</svg>
