<svg width="35" height="30" viewBox="0 0 28 27" fill="none" xmlns="http://www.w3.org/2000/svg">
<path d="M11.5238 14.3557C11.9125 14.847 12.4084 15.2535 12.9779 15.5476C13.5474 15.8418 14.1771 16.0167 14.8244 16.0605C15.4717 16.1043 16.1213 16.016 16.7294 15.8016C17.3374 15.5872 17.8895 15.2516 18.3483 14.8178L21.0636 12.2507C21.888 11.4438 22.3441 10.363 22.3338 9.24125C22.3235 8.11946 21.8476 7.04638 21.0085 6.25312C20.1694 5.45987 19.0343 5.00991 17.8478 5.00016C16.6612 4.99041 15.518 5.42166 14.6645 6.201L13.1077 7.66423M15.1442 12.6443C14.7555 12.153 14.2596 11.7465 13.6901 11.4524C13.1206 11.1582 12.4909 10.9833 11.8436 10.9395C11.1963 10.8957 10.5466 10.984 9.93861 11.1984C9.33059 11.4128 8.77847 11.7484 8.31968 12.1822L5.60436 14.7493C4.77999 15.5562 4.32384 16.637 4.33416 17.7588C4.34447 18.8805 4.82041 19.9536 5.65949 20.7469C6.49856 21.5401 7.63362 21.9901 8.8202 21.9998C10.0068 22.0096 11.1499 21.5783 12.0035 20.799L13.5512 19.3358" stroke="#3A3A3A" stroke-width="1.5" stroke-linecap="round" stroke-linejoin="round"/>
</svg>
