<svg width="40" height="40" viewBox="0 0 31 31" fill="none" xmlns="http://www.w3.org/2000/svg">
<path d="M20.3333 9.05555H20.3498M1 21.9444L9.05556 13.8889C10.5507 12.4502 12.3938 12.4502 13.8889 13.8889L21.9444 21.9444M18.7222 18.7222L20.3333 17.1111C21.8284 15.6724 23.6716 15.6724 25.1667 17.1111L30 21.9444M1 5.83333C1 4.55145 1.50922 3.32208 2.41565 2.41565C3.32208 1.50922 4.55145 1 5.83333 1H25.1667C26.4485 1 27.6779 1.50922 28.5843 2.41565C29.4908 3.32208 30 4.55145 30 5.83333V25.1667C30 26.4485 29.4908 27.6779 28.5843 28.5843C27.6779 29.4908 26.4485 30 25.1667 30H5.83333C4.55145 30 3.32208 29.4908 2.41565 28.5843C1.50922 27.6779 1 26.4485 1 25.1667V5.83333Z" stroke="#3A3A3A" stroke-width="1.5" stroke-linecap="round" stroke-linejoin="round"/>
</svg>
