<svg width="34" height="20" viewBox="0 0 34 20" fill="none" xmlns="http://www.w3.org/2000/svg">
<g clip-path="url(#clip0_596_729)">
<mask id="mask0_596_729" style="mask-type:luminance" maskUnits="userSpaceOnUse" x="0" y="0" width="34" height="20">
<path d="M33.78 0H0.220001V19.58H33.78V0Z" fill="white"/>
</mask>
<g mask="url(#mask0_596_729)">
<path d="M33.78 0H0.220001V19.58H33.78V0Z" fill="white"/>
</g>
<mask id="mask1_596_729" style="mask-type:luminance" maskUnits="userSpaceOnUse" x="0" y="0" width="34" height="20">
<path d="M33.78 0H0.220001V19.58H33.78V0Z" fill="white"/>
</mask>
<g mask="url(#mask1_596_729)">
<path d="M22.69 7.08L33.78 0.87V0H33.02L20.37 7.08H22.69Z" fill="#BD0034"/>
</g>
<mask id="mask2_596_729" style="mask-type:luminance" maskUnits="userSpaceOnUse" x="0" y="0" width="34" height="20">
<path d="M33.78 0H0.220001V19.58H33.78V0Z" fill="white"/>
</mask>
<g mask="url(#mask2_596_729)">
<path d="M22.17 12.89L33.78 19.39V18.09L24.49 12.89H22.17Z" fill="#BD0034"/>
</g>
<mask id="mask3_596_729" style="mask-type:luminance" maskUnits="userSpaceOnUse" x="0" y="0" width="34" height="20">
<path d="M33.78 0H0.220001V19.58H33.78V0Z" fill="white"/>
</mask>
<g mask="url(#mask3_596_729)">
<path d="M0.220001 1.49L10.15 7.08H12.48L0.220001 0.190002V1.49Z" fill="#BD0034"/>
</g>
<mask id="mask4_596_729" style="mask-type:luminance" maskUnits="userSpaceOnUse" x="0" y="0" width="34" height="20">
<path d="M33.78 0H0.220001V19.58H33.78V0Z" fill="white"/>
</mask>
<g mask="url(#mask4_596_729)">
<path d="M11.95 12.89L0.220001 19.46V19.58H2.34L14.27 12.89H11.95Z" fill="#BD0034"/>
</g>
<mask id="mask5_596_729" style="mask-type:luminance" maskUnits="userSpaceOnUse" x="0" y="0" width="34" height="20">
<path d="M33.78 0H0.220001V19.58H33.78V0Z" fill="white"/>
</mask>
<g mask="url(#mask5_596_729)">
<path d="M31.49 0H19.73V6.58L31.49 0Z" fill="#1A237B"/>
</g>
<mask id="mask6_596_729" style="mask-type:luminance" maskUnits="userSpaceOnUse" x="0" y="0" width="34" height="20">
<path d="M33.78 0H0.220001V19.58H33.78V0Z" fill="white"/>
</mask>
<g mask="url(#mask6_596_729)">
<path d="M14.55 0H2.84L14.55 6.58V0Z" fill="#1A237B"/>
</g>
<mask id="mask7_596_729" style="mask-type:luminance" maskUnits="userSpaceOnUse" x="0" y="0" width="34" height="20">
<path d="M33.78 0H0.220001V19.58H33.78V0Z" fill="white"/>
</mask>
<g mask="url(#mask7_596_729)">
<path d="M33.78 7.08V2.59L25.81 7.08H33.78Z" fill="#1A237B"/>
</g>
<mask id="mask8_596_729" style="mask-type:luminance" maskUnits="userSpaceOnUse" x="0" y="0" width="34" height="20">
<path d="M33.78 0H0.220001V19.58H33.78V0Z" fill="white"/>
</mask>
<g mask="url(#mask8_596_729)">
<path d="M33.78 17.33V12.89H25.81L33.78 17.33Z" fill="#1A237B"/>
</g>
<mask id="mask9_596_729" style="mask-type:luminance" maskUnits="userSpaceOnUse" x="0" y="0" width="34" height="20">
<path d="M33.78 0H0.220001V19.58H33.78V0Z" fill="white"/>
</mask>
<g mask="url(#mask9_596_729)">
<path d="M3.51001 19.58H14.55V13.39L3.51001 19.58Z" fill="#1A237B"/>
</g>
<mask id="mask10_596_729" style="mask-type:luminance" maskUnits="userSpaceOnUse" x="0" y="0" width="34" height="20">
<path d="M33.78 0H0.220001V19.58H33.78V0Z" fill="white"/>
</mask>
<g mask="url(#mask10_596_729)">
<path d="M19.73 19.58H30.81L19.73 13.39V19.58Z" fill="#1A237B"/>
</g>
<mask id="mask11_596_729" style="mask-type:luminance" maskUnits="userSpaceOnUse" x="0" y="0" width="34" height="20">
<path d="M33.78 0H0.220001V19.58H33.78V0Z" fill="white"/>
</mask>
<g mask="url(#mask11_596_729)">
<path d="M0.220001 12.89V17.54L8.47 12.89H0.220001Z" fill="#1A237B"/>
</g>
<mask id="mask12_596_729" style="mask-type:luminance" maskUnits="userSpaceOnUse" x="0" y="0" width="34" height="20">
<path d="M33.78 0H0.220001V19.58H33.78V0Z" fill="white"/>
</mask>
<g mask="url(#mask12_596_729)">
<path d="M0.220001 7.07999H8.47L0.220001 2.42999V7.07999Z" fill="#1A237B"/>
</g>
<mask id="mask13_596_729" style="mask-type:luminance" maskUnits="userSpaceOnUse" x="0" y="0" width="34" height="20">
<path d="M33.78 0H0.220001V19.58H33.78V0Z" fill="white"/>
</mask>
<g mask="url(#mask13_596_729)">
<path d="M15.58 0V8.24H0.220001V11.73H15.58V19.58H18.7V11.73H33.78V8.24H18.7V0H15.58Z" fill="#BD0034"/>
</g>
</g>
<defs>
<clipPath id="clip0_596_729">
<rect width="33.56" height="19.58" fill="white" transform="translate(0.220001)"/>
</clipPath>
</defs>
</svg>
